{
    "asset" : {
        "generator" : "Khronos glTF Blender I/O v3.4.50",
        "version" : "2.0"
    },
    "extensionsUsed" : [
        "KHR_materials_specular",
        "KHR_materials_ior"
    ],
    "scene" : 0,
    "scenes" : [
        {
            "name" : "Scene",
            "nodes" : [
                0,
                1,
                2,
                3,
                4
            ]
        }
    ],
    "nodes" : [
        {
            "mesh" : 0,
            "name" : "Plane.001",
            "scale" : [
                4,
                4,
                4
            ]
        },
        {
            "mesh" : 1,
            "name" : "Plane.002",
            "scale" : [
                0.38754570484161377,
                0.38754570484161377,
                0.38754570484161377
            ],
            "translation" : [
                -3.2054622173309326,
                2.3706352710723877,
                3.2744414806365967
            ]
        },
        {
            "name" : "Sun",
            "rotation" : [
                -0.22944007813930511,
                -0.042160581797361374,
                0.523061215877533,
                0.8197479248046875
            ],
            "scale" : [
                524.333984375,
                524.3339233398438,
                524.333984375
            ],
            "translation" : [
                -10.826120376586914,
                14.313896179199219,
                35.338478088378906
            ]
        },
        {
            "mesh" : 2,
            "name" : "Cube.002",
            "scale" : [
                0.45248061418533325,
                1.135524034500122,
                0.45248061418533325
            ],
            "translation" : [
                -3.1458630561828613,
                3.352985382080078,
                3.2622594833374023
            ]
        },
        {
            "camera" : 0,
            "name" : "Camera",
            "rotation" : [
                -0.20997299253940582,
                0.3857799470424652,
                0.09062844514846802,
                0.8937962055206299
            ],
            "translation" : [
                7.358891487121582,
                4.958309173583984,
                6.925790786743164
            ]
        }
    ],
    "cameras" : [
        {
            "name" : "Camera",
            "perspective" : {
                "aspectRatio" : 1.7777777777777777,
                "yfov" : 0.39959652046304894,
                "zfar" : 100,
                "znear" : 0.10000000149011612
            },
            "type" : "perspective"
        }
    ],
    "materials" : [
        {
            "doubleSided" : true,
            "name" : "Material.005",
            "pbrMetallicRoughness" : {
                "baseColorFactor" : [
                    0.021218987181782722,
                    0.012983009219169617,
                    0.03433981165289879,
                    1
                ],
                "metallicFactor" : 0,
                "roughnessFactor" : 0.5
            }
        },
        {
            "doubleSided" : true,
            "extensions" : {
                "KHR_materials_specular" : {
                    "specularColorFactor" : [
                        0,
                        0,
                        0
                    ]
                },
                "KHR_materials_ior" : {
                    "ior" : 1.4500000476837158
                }
            },
            "name" : "Material.006",
            "pbrMetallicRoughness" : {
                "baseColorFactor" : [
                    0.38132596015930176,
                    0.26225048303604126,
                    0.04970664158463478,
                    1
                ],
                "metallicFactor" : 0,
                "roughnessFactor" : 0.5
            }
        },
        {
            "doubleSided" : true,
            "name" : "Material.007",
            "pbrMetallicRoughness" : {
                "baseColorFactor" : [
                    0.8879231214523315,
                    0.19461753964424133,
                    0.11193246394395828,
                    1
                ],
                "metallicFactor" : 0,
                "roughnessFactor" : 0.5
            }
        }
    ],
    "meshes" : [
        {
            "name" : "Mesh",
            "primitives" : [
                {
                    "attributes" : {
                        "POSITION" : 0,
                        "TEXCOORD_0" : 1,
                        "NORMAL" : 2
                    },
                    "indices" : 3,
                    "material" : 0
                },
                {
                    "attributes" : {
                        "POSITION" : 4,
                        "TEXCOORD_0" : 5,
                        "NORMAL" : 6
                    },
                    "indices" : 7,
                    "material" : 1
                },
                {
                    "attributes" : {
                        "POSITION" : 8,
                        "TEXCOORD_0" : 9,
                        "NORMAL" : 10
                    },
                    "indices" : 11,
                    "material" : 2
                }
            ]
        },
        {
            "name" : "Plane.003",
            "primitives" : [
                {
                    "attributes" : {
                        "POSITION" : 12,
                        "NORMAL" : 13
                    },
                    "indices" : 14
                }
            ]
        },
        {
            "name" : "Cube",
            "primitives" : [
                {
                    "attributes" : {
                        "POSITION" : 15,
                        "TEXCOORD_0" : 16,
                        "NORMAL" : 17
                    },
                    "indices" : 18
                }
            ]
        }
    ],
    "accessors" : [
        {
            "bufferView" : 0,
            "componentType" : 5126,
            "count" : 2034,
            "max" : [
                1.044663429260254,
                0.21296165883541107,
                1.0038988590240479
            ],
            "min" : [
                -1.0000001192092896,
                -0.04010576754808426,
                -1.0000001192092896
            ],
            "type" : "VEC3"
        },
        {
            "bufferView" : 1,
            "componentType" : 5126,
            "count" : 2034,
            "type" : "VEC2"
        },
        {
            "bufferView" : 2,
            "componentType" : 5126,
            "count" : 2034,
            "type" : "VEC3"
        },
        {
            "bufferView" : 3,
            "componentType" : 5123,
            "count" : 3072,
            "type" : "SCALAR"
        },
        {
            "bufferView" : 4,
            "componentType" : 5126,
            "count" : 324,
            "max" : [
                1.0112080574035645,
                0.2887325882911682,
                0.9710462689399719
            ],
            "min" : [
                -0.9647532105445862,
                0.18278276920318604,
                -0.9648438096046448
            ],
            "type" : "VEC3"
        },
        {
            "bufferView" : 5,
            "componentType" : 5126,
            "count" : 324,
            "type" : "VEC2"
        },
        {
            "bufferView" : 6,
            "componentType" : 5126,
            "count" : 324,
            "type" : "VEC3"
        },
        {
            "bufferView" : 7,
            "componentType" : 5123,
            "count" : 1536,
            "type" : "SCALAR"
        },
        {
            "bufferView" : 8,
            "componentType" : 5126,
            "count" : 512,
            "max" : [
                1.044663429260254,
                0.2673254609107971,
                0.9987672567367554
            ],
            "min" : [
                -0.9947774410247803,
                0.10483360290527344,
                -0.9947917461395264
            ],
            "type" : "VEC3"
        },
        {
            "bufferView" : 9,
            "componentType" : 5126,
            "count" : 512,
            "type" : "VEC2"
        },
        {
            "bufferView" : 10,
            "componentType" : 5126,
            "count" : 512,
            "type" : "VEC3"
        },
        {
            "bufferView" : 11,
            "componentType" : 5123,
            "count" : 768,
            "type" : "SCALAR"
        },
        {
            "bufferView" : 12,
            "componentType" : 5126,
            "count" : 200,
            "max" : [
                0.647828221321106,
                4.0782389640808105,
                0.6331939101219177
            ],
            "min" : [
                -0.8369834423065186,
                -3.556368827819824,
                -0.6721896529197693
            ],
            "type" : "VEC3"
        },
        {
            "bufferView" : 13,
            "componentType" : 5126,
            "count" : 200,
            "type" : "VEC3"
        },
        {
            "bufferView" : 14,
            "componentType" : 5123,
            "count" : 300,
            "type" : "SCALAR"
        },
        {
            "bufferView" : 15,
            "componentType" : 5126,
            "count" : 88,
            "max" : [
                1.5308748483657837,
                1,
                1.530875563621521
            ],
            "min" : [
                -1.5308758020401,
                -1,
                -1.5308750867843628
            ],
            "type" : "VEC3"
        },
        {
            "bufferView" : 16,
            "componentType" : 5126,
            "count" : 88,
            "type" : "VEC2"
        },
        {
            "bufferView" : 17,
            "componentType" : 5126,
            "count" : 88,
            "type" : "VEC3"
        },
        {
            "bufferView" : 18,
            "componentType" : 5123,
            "count" : 132,
            "type" : "SCALAR"
        }
    ],
    "bufferViews" : [
        {
            "buffer" : 0,
            "byteLength" : 24408,
            "byteOffset" : 0,
            "target" : 34962
        },
        {
            "buffer" : 0,
            "byteLength" : 16272,
            "byteOffset" : 24408,
            "target" : 34962
        },
        {
            "buffer" : 0,
            "byteLength" : 24408,
            "byteOffset" : 40680,
            "target" : 34962
        },
        {
            "buffer" : 0,
            "byteLength" : 6144,
            "byteOffset" : 65088,
            "target" : 34963
        },
        {
            "buffer" : 0,
            "byteLength" : 3888,
            "byteOffset" : 71232,
            "target" : 34962
        },
        {
            "buffer" : 0,
            "byteLength" : 2592,
            "byteOffset" : 75120,
            "target" : 34962
        },
        {
            "buffer" : 0,
            "byteLength" : 3888,
            "byteOffset" : 77712,
            "target" : 34962
        },
        {
            "buffer" : 0,
            "byteLength" : 3072,
            "byteOffset" : 81600,
            "target" : 34963
        },
        {
            "buffer" : 0,
            "byteLength" : 6144,
            "byteOffset" : 84672,
            "target" : 34962
        },
        {
            "buffer" : 0,
            "byteLength" : 4096,
            "byteOffset" : 90816,
            "target" : 34962
        },
        {
            "buffer" : 0,
            "byteLength" : 6144,
            "byteOffset" : 94912,
            "target" : 34962
        },
        {
            "buffer" : 0,
            "byteLength" : 1536,
            "byteOffset" : 101056,
            "target" : 34963
        },
        {
            "buffer" : 0,
            "byteLength" : 2400,
            "byteOffset" : 102592,
            "target" : 34962
        },
        {
            "buffer" : 0,
            "byteLength" : 2400,
            "byteOffset" : 104992,
            "target" : 34962
        },
        {
            "buffer" : 0,
            "byteLength" : 600,
            "byteOffset" : 107392,
            "target" : 34963
        },
        {
            "buffer" : 0,
            "byteLength" : 1056,
            "byteOffset" : 107992,
            "target" : 34962
        },
        {
            "buffer" : 0,
            "byteLength" : 704,
            "byteOffset" : 109048,
            "target" : 34962
        },
        {
            "buffer" : 0,
            "byteLength" : 1056,
            "byteOffset" : 109752,
            "target" : 34962
        },
        {
            "buffer" : 0,
            "byteLength" : 264,
            "byteOffset" : 110808,
            "target" : 34963
        }
    ],
    "buffers" : [
        {
            "byteLength" : 111072,
            "uri" : "data:application/octet-stream;base64,"
        }
    ]
}
